<svg width="965" height="459" viewBox="0 0 965 459" fill="none" xmlns="http://www.w3.org/2000/svg">
<rect width="965" height="459" fill="#0F1E34"/>
<path fill-rule="evenodd" clip-rule="evenodd" d="M646 206C646 203.791 647.791 202 650 202H890C892.209 202 894 203.791 894 206V213C894 215.209 892.209 217 890 217H650C647.791 217 646 215.209 646 213V206Z" fill="#465E82"/>
<path fill-rule="evenodd" clip-rule="evenodd" d="M330 206C330 203.791 331.791 202 334 202H528C530.209 202 532 203.791 532 206V213C532 215.209 530.209 217 528 217H334C331.791 217 330 215.209 330 213V206Z" fill="#465E82"/>
<path fill-rule="evenodd" clip-rule="evenodd" d="M646 229C646 227.895 646.895 227 648 227H758C759.105 227 760 227.895 760 229V235C760 236.105 759.105 237 758 237H648C646.895 237 646 236.105 646 235V229Z" fill="#213450"/>
<path fill-rule="evenodd" clip-rule="evenodd" d="M330 229C330 227.895 330.895 227 332 227H442C443.105 227 444 227.895 444 229V235C444 236.105 443.105 237 442 237H332C330.895 237 330 236.105 330 235V229Z" fill="#213450"/>
<path fill-rule="evenodd" clip-rule="evenodd" d="M646 243C646 241.895 646.895 241 648 241H846C847.105 241 848 241.895 848 243V249C848 250.105 847.105 251 846 251H648C646.895 251 646 250.105 646 249V243Z" fill="#213450"/>
<path fill-rule="evenodd" clip-rule="evenodd" d="M330 243C330 241.895 330.895 241 332 241H481C482.105 241 483 241.895 483 243V249C483 250.105 482.105 251 481 251H332C330.895 251 330 250.105 330 249V243Z" fill="#213450"/>
<rect x="646" y="30" width="289" height="158" rx="8" fill="#213450"/>
<rect x="330" y="30" width="289" height="158" rx="8" fill="#213450"/>
<rect x="31" y="140" width="267" height="289" rx="8" fill="#213450"/>
<rect x="55" y="303" width="220" height="108" rx="8" fill="#0F1E34"/>
<rect x="31" y="30" width="267" height="79" rx="8" fill="#213450"/>
<path fill-rule="evenodd" clip-rule="evenodd" d="M76 232C76 229.791 77.7909 228 80 228H132C134.209 228 136 229.791 136 232V234C136 236.209 134.209 238 132 238H80C77.7909 238 76 236.209 76 234V232Z" fill="#465E82"/>
<path fill-rule="evenodd" clip-rule="evenodd" d="M76 252C76 249.791 77.7909 248 80 248H132C134.209 248 136 249.791 136 252V254C136 256.209 134.209 258 132 258H80C77.7909 258 76 256.209 76 254V252Z" fill="#465E82"/>
<rect x="56" y="228" width="10" height="10" rx="5" fill="#465E82"/>
<rect x="56" y="248" width="10" height="10" rx="5" fill="#465E82"/>
<path d="M809.433 86.0024H771.574H771.573C767.392 86.006 764.005 89.4355 764.001 93.6689V124.335L764 124.334C764.004 128.566 767.391 131.995 771.571 132H809.429H809.428C813.608 131.995 816.995 128.566 817 124.334V93.6677C816.995 89.4343 813.608 86.0048 809.428 86L809.433 86.0024ZM799.968 93.6689H799.967C803.102 93.6677 805.646 96.2431 805.646 99.4187C805.646 102.593 803.102 105.169 799.967 105.169C796.831 105.169 794.288 102.593 794.288 99.4187H794.287C794.289 96.2443 796.831 93.6713 799.965 93.6677L799.968 93.6689ZM771.574 128.168L771.573 128.168C769.481 128.167 767.787 126.451 767.787 124.333V116.232L779.007 106.134V106.133C781.254 104.114 784.664 104.214 786.792 106.36L794.476 114.124L780.608 128.165L771.574 128.168ZM813.219 124.335C813.219 126.451 811.523 128.168 809.433 128.168H785.964L800.329 113.623V113.622C802.429 111.813 805.512 111.805 807.622 113.603L813.219 118.325V124.335Z" fill="#465E82"/>
<path d="M493.433 86.0024H455.574H455.573C451.392 86.006 448.005 89.4355 448.001 93.6689V124.335L448 124.334C448.004 128.566 451.391 131.995 455.571 132H493.429H493.428C497.608 131.995 500.995 128.566 501 124.334V93.6677C500.995 89.4343 497.608 86.0048 493.428 86L493.433 86.0024ZM483.968 93.6689H483.967C487.102 93.6677 489.646 96.2431 489.646 99.4187C489.646 102.593 487.102 105.169 483.967 105.169C480.831 105.169 478.288 102.593 478.288 99.4187H478.287C478.289 96.2443 480.831 93.6713 483.965 93.6677L483.968 93.6689ZM455.574 128.168L455.573 128.168C453.481 128.167 451.787 126.451 451.787 124.333V116.232L463.007 106.134V106.133C465.254 104.114 468.664 104.214 470.792 106.36L478.476 114.124L464.608 128.165L455.574 128.168ZM497.219 124.335C497.219 126.451 495.523 128.168 493.433 128.168H469.964L484.329 113.623V113.622C486.429 111.813 489.512 111.805 491.622 113.603L497.219 118.325V124.335Z" fill="#465E82"/>
<path fill-rule="evenodd" clip-rule="evenodd" d="M56 167C56 164.791 57.7909 163 60 163H206C208.209 163 210 164.791 210 167V174C210 176.209 208.209 178 206 178H60C57.7909 178 56 176.209 56 174V167Z" fill="#465E82"/>
<path fill-rule="evenodd" clip-rule="evenodd" d="M114 58C114 55.7909 115.791 54 118 54H264C266.209 54 268 55.7909 268 58V65C268 67.2091 266.209 69 264 69H118C115.791 69 114 67.2091 114 65V58Z" fill="#465E82"/>
<path fill-rule="evenodd" clip-rule="evenodd" d="M56 190C56 188.895 56.8954 188 58 188H141C142.105 188 143 188.895 143 190V196C143 197.105 142.105 198 141 198H58C56.8954 198 56 197.105 56 196V190Z" fill="#0F1E34"/>
<path fill-rule="evenodd" clip-rule="evenodd" d="M114 77C114 75.8954 114.895 75 116 75H199C200.105 75 201 75.8954 201 77V83C201 84.1046 200.105 85 199 85H116C114.895 85 114 84.1046 114 83V77Z" fill="#0F1E34"/>
<path fill-rule="evenodd" clip-rule="evenodd" d="M56 208C56 206.895 56.8954 206 58 206H171C172.105 206 173 206.895 173 208V214C173 215.105 172.105 216 171 216H58C56.8954 216 56 215.105 56 214V208Z" fill="#0F1E34"/>
<path fill-rule="evenodd" clip-rule="evenodd" d="M70 402C68.8954 402 68 401.105 68 400L68 380C68 378.895 68.8954 378 70 378L75.6535 378C76.758 378 77.6535 378.895 77.6535 380L77.6535 400C77.6535 401.105 76.758 402 75.6535 402L70 402Z" fill="#465E82"/>
<path fill-rule="evenodd" clip-rule="evenodd" d="M131.782 402C130.678 402 129.782 401.105 129.782 400L129.782 380C129.782 378.895 130.678 378 131.782 378L137.436 378C138.54 378 139.436 378.895 139.436 380L139.436 400C139.436 401.105 138.54 402 137.436 402L131.782 402Z" fill="#465E82"/>
<path fill-rule="evenodd" clip-rule="evenodd" d="M193.564 402C192.459 402 191.564 401.105 191.564 400L191.564 342C191.564 340.895 192.459 340 193.564 340L199.217 340C200.322 340 201.217 340.895 201.217 342L201.217 400C201.217 401.105 200.322 402 199.217 402L193.564 402Z" fill="#465E82"/>
<path fill-rule="evenodd" clip-rule="evenodd" d="M85.4453 402C84.3407 402 83.4453 401.105 83.4453 400L83.4453 364C83.4453 362.895 84.3407 362 85.4453 362L91.0988 362C92.2033 362 93.0988 362.895 93.0988 364L93.0988 400C93.0988 401.105 92.2033 402 91.0988 402L85.4453 402Z" fill="#465E82"/>
<path fill-rule="evenodd" clip-rule="evenodd" d="M147.228 402C146.123 402 145.228 401.105 145.228 400L145.228 356C145.228 354.895 146.123 354 147.228 354L152.881 354C153.986 354 154.881 354.895 154.881 356L154.881 400C154.881 401.105 153.986 402 152.881 402L147.228 402Z" fill="#465E82"/>
<path fill-rule="evenodd" clip-rule="evenodd" d="M209.01 402C207.905 402 207.01 401.105 207.01 400L207.01 364C207.01 362.895 207.905 362 209.01 362L214.663 362C215.768 362 216.663 362.895 216.663 364L216.663 400C216.663 401.105 215.768 402 214.663 402L209.01 402Z" fill="#465E82"/>
<path fill-rule="evenodd" clip-rule="evenodd" d="M100.891 402C99.7868 402 98.8914 401.105 98.8914 400L98.8914 380C98.8914 378.895 99.7868 378 100.891 378L106.545 378C107.649 378 108.545 378.895 108.545 380L108.545 400C108.545 401.105 107.649 402 106.545 402L100.891 402Z" fill="#465E82"/>
<path fill-rule="evenodd" clip-rule="evenodd" d="M162.674 402C161.569 402 160.674 401.105 160.674 400L160.674 367C160.674 365.895 161.569 365 162.674 365L168.327 365C169.432 365 170.327 365.895 170.327 367L170.327 400C170.327 401.105 169.432 402 168.327 402L162.674 402Z" fill="#465E82"/>
<path fill-rule="evenodd" clip-rule="evenodd" d="M224.455 402C223.351 402 222.455 401.105 222.455 400L222.455 347C222.455 345.895 223.351 345 224.455 345L230.109 345C231.213 345 232.109 345.895 232.109 347L232.109 400C232.109 401.105 231.213 402 230.109 402L224.455 402Z" fill="#465E82"/>
<path fill-rule="evenodd" clip-rule="evenodd" d="M239.901 402C238.797 402 237.901 401.105 237.901 400L237.901 337C237.901 335.895 238.797 335 239.901 335L245.555 335C246.659 335 247.555 335.895 247.555 337L247.555 400C247.555 401.105 246.659 402 245.555 402L239.901 402Z" fill="#465E82"/>
<path fill-rule="evenodd" clip-rule="evenodd" d="M116.337 402C115.232 402 114.337 401.105 114.337 400L114.337 345C114.337 343.895 115.232 343 116.337 343L121.99 343C123.095 343 123.99 343.895 123.99 345L123.99 400C123.99 401.105 123.095 402 121.99 402L116.337 402Z" fill="#465E82"/>
<path fill-rule="evenodd" clip-rule="evenodd" d="M178.118 402C177.014 402 176.118 401.105 176.118 400L176.118 333C176.118 331.895 177.014 331 178.118 331L183.772 331C184.876 331 185.772 331.895 185.772 333L185.772 400C185.772 401.105 184.876 402 183.772 402L178.118 402Z" fill="#465E82"/>
<path fill-rule="evenodd" clip-rule="evenodd" d="M255.346 402C254.242 402 253.346 401.105 253.346 400L253.346 318C253.346 316.895 254.242 316 255.346 316L261 316C262.104 316 263 316.895 263 318L263 400C263 401.105 262.104 402 261 402L255.346 402Z" fill="#465E82"/>
<circle cx="77.5" cy="70.5" r="20.5" fill="#465E82"/>
<rect x="330" y="398" width="605" height="31" rx="8" fill="#213450"/>
<path fill-rule="evenodd" clip-rule="evenodd" d="M373 411C373 409.895 373.895 409 375 409H431C432.105 409 433 409.895 433 411V417C433 418.105 432.105 419 431 419H375C373.895 419 373 418.105 373 417V411Z" fill="#465E82"/>
<path fill-rule="evenodd" clip-rule="evenodd" d="M508 411C508 409.895 508.895 409 510 409H622C623.105 409 624 409.895 624 411V417C624 418.105 623.105 419 622 419H510C508.895 419 508 418.105 508 417V411Z" fill="#465E82"/>
<path fill-rule="evenodd" clip-rule="evenodd" d="M732 411C732 409.895 732.895 409 734 409H846C847.105 409 848 409.895 848 411V417C848 418.105 847.105 419 846 419H734C732.895 419 732 418.105 732 417V411Z" fill="#465E82"/>
<circle cx="349" cy="414" r="7" fill="#465E82"/>
<rect x="330" y="358" width="605" height="31" rx="8" fill="#213450"/>
<path fill-rule="evenodd" clip-rule="evenodd" d="M373 371C373 369.895 373.895 369 375 369H405C406.105 369 407 369.895 407 371V377C407 378.105 406.105 379 405 379H375C373.895 379 373 378.105 373 377V371Z" fill="#465E82"/>
<path fill-rule="evenodd" clip-rule="evenodd" d="M508 371C508 369.895 508.895 369 510 369H573C574.105 369 575 369.895 575 371V377C575 378.105 574.105 379 573 379H510C508.895 379 508 378.105 508 377V371Z" fill="#465E82"/>
<path fill-rule="evenodd" clip-rule="evenodd" d="M732 371C732 369.895 732.895 369 734 369H820C821.105 369 822 369.895 822 371V377C822 378.105 821.105 379 820 379H734C732.895 379 732 378.105 732 377V371Z" fill="#465E82"/>
<circle cx="349" cy="374" r="7" fill="#465E82"/>
<rect x="330" y="318" width="605" height="31" rx="8" fill="#213450"/>
<path fill-rule="evenodd" clip-rule="evenodd" d="M373 331C373 329.895 373.895 329 375 329H418C419.105 329 420 329.895 420 331V337C420 338.105 419.105 339 418 339H375C373.895 339 373 338.105 373 337V331Z" fill="#465E82"/>
<path fill-rule="evenodd" clip-rule="evenodd" d="M508 331C508 329.895 508.895 329 510 329H662C663.105 329 664 329.895 664 331V337C664 338.105 663.105 339 662 339H510C508.895 339 508 338.105 508 337V331Z" fill="#465E82"/>
<path fill-rule="evenodd" clip-rule="evenodd" d="M732 331C732 329.895 732.895 329 734 329H780C781.105 329 782 329.895 782 331V337C782 338.105 781.105 339 780 339H734C732.895 339 732 338.105 732 337V331Z" fill="#465E82"/>
<circle cx="349" cy="334" r="7" fill="#465E82"/>
<rect x="330" y="278" width="605" height="31" rx="8" fill="#213450"/>
<path fill-rule="evenodd" clip-rule="evenodd" d="M373 291C373 289.895 373.895 289 375 289H439C440.105 289 441 289.895 441 291V297C441 298.105 440.105 299 439 299H375C373.895 299 373 298.105 373 297V291Z" fill="#465E82"/>
<path fill-rule="evenodd" clip-rule="evenodd" d="M508 291C508 289.895 508.895 289 510 289H606C607.105 289 608 289.895 608 291V297C608 298.105 607.105 299 606 299H510C508.895 299 508 298.105 508 297V291Z" fill="#465E82"/>
<path fill-rule="evenodd" clip-rule="evenodd" d="M732 291C732 289.895 732.895 289 734 289H892C893.105 289 894 289.895 894 291V297C894 298.105 893.105 299 892 299H734C732.895 299 732 298.105 732 297V291Z" fill="#465E82"/>
<circle cx="349" cy="294" r="7" fill="#465E82"/>
<path d="M78 70.0002L77.9996 70.0002C80.3785 70.0002 82.3073 67.9853 82.3073 65.5003C82.3073 63.0149 80.3785 61.0004 77.9996 61C75.6204 60.9996 73.6919 63.0145 73.6915 65.4995V65.4991C73.6912 67.9841 75.62 69.999 77.9988 69.999L78 70.0002ZM78 71.2859C75.33 71.2859 70 73.0087 70 76.4286V79H86V76.4286C86 73.0087 80.67 71.2859 78 71.2859Z" fill="#213450"/>
</svg>
